<svg height="496pt" viewBox="0 0 496 496" width="496pt" xmlns="http://www.w3.org/2000/svg"><path d="m312 352c-17.648438 0-32 14.351562-32 32v48c0 17.648438 14.351562 32 32 32s32-14.351562 32-32v-48c0-17.648438-14.351562-32-32-32zm16 80c0 8.824219-7.175781 16-16 16s-16-7.175781-16-16v-48c0-8.824219 7.175781-16 16-16s16 7.175781 16 16zm0 0"/><path d="m152 464h48v-48h-48zm16-32h16v16h-16zm0 0"/><path d="m216 464h48v-48h-48zm16-32h16v16h-16zm0 0"/><path d="m152 400h48v-48h-48zm16-32h16v16h-16zm0 0"/><path d="m216 400h48v-48h-48zm16-32h16v16h-16zm0 0"/><path d="m152 336h48v-48h-48zm16-32h16v16h-16zm0 0"/><path d="m216 336h48v-48h-48zm16-32h16v16h-16zm0 0"/><path d="m328 288h-48v48h48zm-16 32h-16v-16h16zm0 0"/><path d="m256 184h-16c-4.40625 0-8-3.59375-8-8h-16c0 13.230469 10.769531 24 24 24v8h16v-8c13.230469 0 24-10.769531 24-24s-10.769531-24-24-24h-16c-4.40625 0-8-3.59375-8-8s3.59375-8 8-8h16c4.40625 0 8 3.59375 8 8h16c0-13.230469-10.769531-24-24-24v-8h-16v8c-13.230469 0-24 10.769531-24 24s10.769531 24 24 24h16c4.40625 0 8 3.59375 8 8s-3.59375 8-8 8zm0 0"/><path d="m376 364.6875v-180.6875c0-13.230469-10.769531-24-24-24h-16.40625c-4.058594-44.785156-41.769531-80-87.59375-80s-83.535156 35.214844-87.59375 80h-16.40625c-13.230469 0-24 10.769531-24 24v88l-12-16h-12v-56h-16v56h-16v-80h-16v80h-16v-104h-16v104h-16v16h100l20 26.664062v173.335938c0 13.230469 10.769531 24 24 24h208c13.230469 0 24-10.769531 24-24v-84.6875l27.3125-27.3125h92.6875v-16h-99.3125zm-48-148.6875v8h-12.078125c2.125-2.558594 4.101563-5.230469 5.910156-8zm-153.832031 0c1.808593 2.769531 3.785156 5.441406 5.910156 8h-12.078125v-8zm-6.167969 24h160v16h-160zm80-144c39.695312 0 72 32.304688 72 72 0 22.023438-9.824219 42.257812-26.902344 56h-90.195312c-17.078125-13.742188-26.902344-33.976562-26.902344-56 0-39.695312 32.304688-72 72-72zm112 376c0 4.40625-3.59375 8-8 8h-208c-4.40625 0-8-3.59375-8-8v-288c0-4.40625 3.59375-8 8-8h16.457031c.742188 8.335938 2.621094 16.382812 5.582031 24h-14.039062v72h192v-72h-14.039062c2.960937-7.617188 4.839843-15.664062 5.582031-24h16.457031c4.40625 0 8 3.59375 8 8zm0 0"/><path d="m456 312h16v16h-16zm0 0"/><path d="m456 280h16v16h-16zm0 0"/><path d="m472 219.3125 10.34375 10.34375 11.3125-11.3125-29.65625-29.65625-29.65625 29.65625 11.3125 11.3125 10.34375-10.34375v44.6875h16zm0 0"/><path d="m400 240h16v16h-16zm0 0"/><path d="m400 208h16v16h-16zm0 0"/><path d="m416 147.3125 10.34375 10.34375 11.3125-11.3125-29.65625-29.65625-29.65625 29.65625 11.3125 11.3125 10.34375-10.34375v44.6875h16zm0 0"/><path d="m24 112c13.230469 0 24-10.769531 24-24 0-2.367188-.449219-4.609375-1.089844-6.769531l51.523438-37.460938c3.863281 2.65625 8.527344 4.230469 13.566406 4.230469 9.425781 0 17.511719-5.503906 21.433594-13.425781l91.199218 10.730469c2.429688 10.679687 11.960938 18.695312 23.367188 18.695312 7.664062 0 14.433594-3.679688 18.824219-9.296875l77.222656 25.746094c.242187 13.023437 10.875 23.550781 23.953125 23.550781 13.230469 0 24-10.769531 24-24 0-1.246094-.183594-2.449219-.367188-3.640625l64.328126-34.632813c4.253906 3.859376 9.855468 6.273438 16.039062 6.273438 13.230469 0 24-10.769531 24-24s-10.769531-24-24-24-24 10.769531-24 24c0 1.246094.183594 2.449219.367188 3.640625l-64.328126 34.632813c-4.253906-3.859376-9.855468-6.273438-16.039062-6.273438-7.664062 0-14.433594 3.679688-18.824219 9.296875l-77.222656-25.746094c-.242187-13.023437-10.875-23.550781-23.953125-23.550781-9.425781 0-17.511719 5.503906-21.433594 13.425781l-91.199218-10.730469c-2.429688-10.679687-11.960938-18.695312-23.367188-18.695312-13.230469 0-24 10.769531-24 24 0 2.367188.449219 4.609375 1.089844 6.769531l-51.523438 37.46875c-3.863281-2.664062-8.527344-4.238281-13.566406-4.238281-13.230469 0-24 10.769531-24 24s10.769531 24 24 24zm448-96c4.40625 0 8 3.59375 8 8s-3.59375 8-8 8-8-3.59375-8-8 3.59375-8 8-8zm-104 56c4.40625 0 8 3.59375 8 8s-3.59375 8-8 8-8-3.59375-8-8 3.59375-8 8-8zm-120-40c4.40625 0 8 3.59375 8 8s-3.59375 8-8 8-8-3.59375-8-8 3.59375-8 8-8zm-136-16c4.40625 0 8 3.59375 8 8s-3.59375 8-8 8-8-3.59375-8-8 3.59375-8 8-8zm-88 64c4.40625 0 8 3.59375 8 8s-3.59375 8-8 8-8-3.59375-8-8 3.59375-8 8-8zm0 0"/></svg>