<svg height="496pt" viewBox="0 0 496 496" width="496pt" xmlns="http://www.w3.org/2000/svg"><path d="m496 216v-16h-16v-176h-48v176h-16v-128h-48v128h-16v-80h-48v80h-19.3125l-44.519531 44.519531-16.105469-16.105469-24.359375 17.402344c-6.375-3.34375-13.070313-6.113281-20-8.273437l-4.925781-29.542969h-22.777344v-96h24c30.878906 0 56-25.121094 56-56v-8h-40c-15.664062 0-29.824219 6.480469-40 16.878906v-8.878906c0-30.878906-25.121094-56-56-56h-40v8c0 30.878906 25.121094 56 56 56h24v72.878906c-10.175781-10.398437-24.335938-16.878906-40-16.878906h-40v8c0 30.878906 25.121094 56 56 56h24v24h-22.777344l-4.925781 29.542969c-6.929687 2.160156-13.625 4.929687-20 8.273437l-24.359375-17.402344-43.53125 43.53125 17.402344 24.359376c-3.34375 6.375-6.113282 13.070312-8.273438 20l-29.535156 4.917968v61.554688l29.542969 4.925781c2.160156 6.929687 4.929687 13.625 8.273437 20l-17.402344 24.359375 43.53125 43.53125 24.359376-17.402344c6.375 3.34375 13.070312 6.113282 20 8.273438l4.917968 29.535156h61.554688l4.925781-29.542969c6.929687-2.160156 13.625-4.929687 20-8.273437l24.359375 17.402344 43.53125-43.53125-17.402344-24.359376c3.34375-6.375 6.113282-13.070312 8.273438-20l18.421875-3.070312c14 45.894531 56.707031 79.375 107.113281 79.375 61.761719 0 112-50.238281 112-112s-50.238281-112-112-112c-50.40625 0-93.113281 33.480469-107.121094 79.367188l-18.421875-3.070313c-2.160156-6.929687-4.929687-13.625-8.273437-20l17.402344-24.359375-16.105469-16.105469 39.832031-39.832031zm-48-176h16v160h-16zm-64 48h16v112h-16zm-64 48h16v64h-16zm-128-72h23.191406c-3.710937 18.230469-19.878906 32-39.191406 32h-23.191406c3.710937-18.230469 19.871094-32 39.191406-32zm-80-16c-19.320312 0-35.480469-13.769531-39.191406-32h23.191406c19.320312 0 35.480469 13.769531 39.191406 32zm0 120c-19.320312 0-35.480469-13.769531-39.191406-32h23.191406c19.320312 0 35.480469 13.769531 39.191406 32zm272 88c52.9375 0 96 43.0625 96 96s-43.0625 96-96 96-96-43.0625-96-96 43.0625-96 96-96zm-112 78.777344v34.445312l-26.246094 4.378906-1.320312 5c-2.386719 9.023438-5.953125 17.644532-10.601563 25.621094l-2.601562 4.472656 15.457031 21.648438-24.351562 24.351562-21.648438-15.457031-4.472656 2.601563c-7.976563 4.648437-16.589844 8.207031-25.621094 10.601562l-4.992188 1.3125-4.378906 26.246094h-34.445312l-4.378906-26.246094-5-1.320312c-9.023438-2.386719-17.644532-5.953125-25.621094-10.601563l-4.472656-2.601562-21.648438 15.457031-24.351562-24.351562 15.457031-21.648438-2.601563-4.472656c-4.648437-7.976563-8.207031-16.589844-10.601562-25.621094l-1.3125-4.992188-26.246094-4.378906v-34.445312l26.246094-4.378906 1.320312-5c2.386719-9.023438 5.953125-17.644532 10.601563-25.621094l2.601562-4.472656-15.457031-21.648438 24.351562-24.351562 21.648438 15.457031 4.472656-2.601563c7.976563-4.648437 16.589844-8.207031 25.621094-10.601562l5-1.320313 4.371094-26.238281h34.445312l4.378906 26.246094 5 1.320312c9.023438 2.386719 17.644532 5.953125 25.621094 10.601563l4.472656 2.601562 21.648438-15.457031 24.351562 24.351562-15.457031 21.648438 2.601563 4.472656c4.648437 7.976563 8.207031 16.589844 10.601562 25.621094l1.320313 5zm0 0"/><path d="m384 432c18.3125 0 35.566406-6.0625 49.902344-17.527344l-9.992188-12.496094c-11.46875 9.175782-25.269531 14.023438-39.910156 14.023438-35.289062 0-64-28.710938-64-64 0-14.640625 4.847656-28.441406 14.023438-39.910156l-12.496094-9.992188c-11.464844 14.335938-17.527344 31.589844-17.527344 49.902344 0 44.113281 35.886719 80 80 80zm0 0"/><path d="m384 288c35.289062 0 64 28.710938 64 64 0 14.640625-4.847656 28.441406-14.023438 39.910156l12.496094 9.992188c11.464844-14.335938 17.527344-31.589844 17.527344-49.902344 0-44.113281-35.886719-80-80-80-18.3125 0-35.566406 6.0625-49.902344 17.527344l9.992188 12.496094c11.46875-9.175782 25.269531-14.023438 39.910156-14.023438zm0 0"/><path d="m376 328h16c4.40625 0 8 3.59375 8 8h16c0-13.230469-10.769531-24-24-24v-8h-16v8c-13.230469 0-24 10.769531-24 24s10.769531 24 24 24h16c4.40625 0 8 3.59375 8 8s-3.59375 8-8 8h-16c-4.40625 0-8-3.59375-8-8h-16c0 13.230469 10.769531 24 24 24v8h16v-8c13.230469 0 24-10.769531 24-24s-10.769531-24-24-24h-16c-4.40625 0-8-3.59375-8-8s3.59375-8 8-8zm0 0"/><path d="m136 232h16v16h-16zm0 0"/><path d="m53.492188 272.804688 11.316406-11.316407 11.3125 11.316407-11.3125 11.3125zm0 0"/><path d="m24 344h16v16h-16zm0 0"/><path d="m53.492188 431.195312 11.316406-11.316406 11.3125 11.316406-11.3125 11.3125zm0 0"/><path d="m136 456h16v16h-16zm0 0"/><path d="m211.882812 431.195312 11.316407-11.316406 11.3125 11.316406-11.3125 11.3125zm0 0"/><path d="m248 344h16v16h-16zm0 0"/><path d="m211.882812 272.804688 11.316407-11.316407 11.3125 11.316407-11.3125 11.3125zm0 0"/><path d="m144 264c-48.519531 0-88 39.480469-88 88s39.480469 88 88 88 88-39.480469 88-88-39.480469-88-88-88zm0 160c-39.695312 0-72-32.304688-72-72s32.304688-72 72-72 72 32.304688 72 72-32.304688 72-72 72zm0 0"/><path d="m144 392c-22.054688 0-40-17.945312-40-40 0-8.320312 2.566406-16.320312 7.425781-23.144531l-13.035156-9.28125c-6.796875 9.546875-10.390625 20.761719-10.390625 32.425781 0 30.878906 25.121094 56 56 56 11.664062 0 22.878906-3.59375 32.425781-10.390625l-9.28125-13.035156c-6.824219 4.859375-14.824219 7.425781-23.144531 7.425781zm0 0"/><path d="m144 296c-11.664062 0-22.878906 3.59375-32.425781 10.390625l9.28125 13.035156c6.824219-4.859375 14.824219-7.425781 23.144531-7.425781 22.054688 0 40 17.945312 40 40 0 8.320312-2.566406 16.320312-7.425781 23.144531l13.035156 9.28125c6.796875-9.546875 10.390625-20.761719 10.390625-32.425781 0-30.878906-25.121094-56-56-56zm0 0"/></svg>