<svg height="496pt" viewBox="0 0 496 496" width="496pt" xmlns="http://www.w3.org/2000/svg"><path d="m493.40625 371.839844-19.214844-83.28125c-1.457031-6.292969-2.191406-12.75-2.191406-19.191406v-52.574219c4.910156-2.863281 8-7.984375 8-13.738281v-59.054688c0-8.824219-7.175781-16-16-16h-64v-56c0-22.054688-17.945312-40-40-40h-120v-16c0-8.824219-7.175781-16-16-16h-48c-8.824219 0-16 7.175781-16 16v16h-24c-22.054688 0-40 17.945312-40 40v56h-64c-8.824219 0-16 7.175781-16 16v59.054688c0 5.753906 3.089844 10.875 8 13.738281v52.574219c0 6.441406-.734375 12.898437-2.183594 19.191406l-19.222656 83.28125c-1.722656 7.480468-2.59375 15.144531-2.59375 22.792968 0 55.894532 45.480469 101.367188 101.367188 101.367188h293.265624c55.886719 0 101.367188-45.472656 101.367188-101.367188 0-7.648437-.871094-15.3125-2.59375-22.792968zm-429.40625-227.839844h368v42.960938l-168.839844 80.742187c-11.984375 5.738281-26.65625 5.601563-38.519531-.335937l-160.640625-80.3125zm296-96c13.230469 0 24 10.769531 24 24v56h-16v-48c0-8.824219-7.175781-16-16-16h-112v-16zm-120 48v-16h112v48h-208v-48h16v16c0 8.824219 7.175781 16 16 16h48c8.824219 0 16-7.175781 16-16zm-64-80h48v80h-48v-16h32v-48h-32zm-64 56c0-13.230469 10.769531-24 24-24h56v16h-48c-8.824219 0-16 7.175781-16 16v48h-16zm-80 72h16v52.945312l169.480469 84.734376c8.261719 4.136718 17.519531 6.320312 26.765625 6.320312 8.875 0 17.808594-2.023438 25.824218-5.855469l177.929688-85.105469v-53.039062h16v59.054688l-189.265625 94.632812c-16.511719 8.257812-36.949219 8.257812-53.46875 0l-189.265625-94.632812zm208 216v-40.472656c2.65625.289062 5.328125.472656 8 .472656s5.34375-.183594 8-.472656v40.472656zm16 16v104h-16v-104zm-240 18.632812c0-6.441406.734375-12.898437 2.183594-19.191406l19.222656-83.28125c1.722656-7.480468 2.59375-15.144531 2.59375-22.792968v-44.421876l174.113281 87.054688c3.183594 1.59375 6.511719 2.871094 9.886719 4v44h-16v-8h-16v32h16v-8h16v104h-122.632812c-47.070313 0-85.367188-38.296875-85.367188-85.367188zm378.632812 85.367188h-122.632812v-104h16v8h16v-32h-16v8h-16v-44c3.382812-1.128906 6.703125-2.40625 9.886719-4l174.113281-87.054688v44.421876c0 7.648437.871094 15.320312 2.59375 22.792968l19.214844 83.28125c1.457031 6.292969 2.191406 12.75 2.191406 19.191406 0 47.070313-38.296875 85.367188-85.367188 85.367188zm0 0"/><path d="m48 424c0 13.230469 10.769531 24 24 24h80c13.230469 0 24-10.769531 24-24v-88h-128zm104 8h-80c-4.414062 0-8-3.59375-8-8v-62.609375l48 41.144531 48-41.144531v62.609375c0 4.40625-3.585938 8-8 8zm-74.375-80h68.75l-34.375 29.464844zm0 0"/><path d="m320 424c0 13.230469 10.769531 24 24 24h80c13.230469 0 24-10.769531 24-24v-88h-128zm104 8h-80c-4.414062 0-8-3.59375-8-8v-62.609375l48 41.144531 48-41.144531v62.609375c0 4.40625-3.585938 8-8 8zm-74.375-80h68.75l-34.375 29.464844zm0 0"/></svg>