<svg height="496pt" viewBox="0 0 496 496" width="496pt" xmlns="http://www.w3.org/2000/svg"><path d="m448 400h16v16h-16zm0 0"/><path d="m416 400h16v16h-16zm0 0"/><path d="m384 400h16v16h-16zm0 0"/><path d="m168 57.046875v93.898437l58.425781-38.945312h29.574219v-16h-29.574219zm16 64v-34.101563l25.574219 17.054688zm0 0"/><path d="m456 80h-40v-80h-336v80h-40c-22.054688 0-40 17.945312-40 40v288c0 22.054688 17.945312 40 40 40h96v32h-32v16h288v-16h-32v-32h96c22.054688 0 40-17.945312 40-40v-288c0-22.054688-17.945312-40-40-40zm-416 16h40v256h336v-240h-44l-16.320312 21.753906-17.167969-68.675781-24 48-4.265625-17.078125h-22.246094v-64h-176v160h176v-64h-16v48h-144v-128h144v64h25.753906l11.726563 46.921875 24-48 14.832031 59.324219 31.6875-42.246094h20v208h-304v-320h304v80h56c13.230469 0 24 10.769531 24 24v248h-99.3125l-32 32h-332.6875v-280c0-13.230469 10.769531-24 24-24zm304 384h-192v-32h192zm112-48h-416c-10.414062 0-19.214844-6.710938-22.527344-16h337.839844l32-32h92.6875v24c0 13.230469-10.769531 24-24 24zm0 0"/><path d="m112 272h16v48h16v-48h16v-16h-16v-48h-16v48h-16zm0 0"/><path d="m192 320h16v-16h16v-16h-16v-80h-16v80h-16v16h16zm0 0"/><path d="m256 320h16v-80h16v-16h-16v-16h-16v16h-16v16h16zm0 0"/><path d="m304 208h80v16h-80zm0 0"/><path d="m304 240h80v16h-80zm0 0"/><path d="m304 272h80v16h-80zm0 0"/><path d="m336 304h16v16h-16zm0 0"/><path d="m368 304h16v16h-16zm0 0"/><path d="m304 304h16v16h-16zm0 0"/></svg>