<svg height="496pt" viewBox="0 0 496 496" width="496pt" xmlns="http://www.w3.org/2000/svg"><path d="m32 128h16v16h-16zm0 0"/><path d="m64 128h80v16h-80zm0 0"/><path d="m440.296875 144h55.703125v-80h-64v-32h-35.054688l-16-32h-265.890624l-16 32h-35.054688v64h-64v80h64v134.496094c-14.320312 8.3125-24 23.785156-24 41.503906v16c0 14.167969 6.207031 26.878906 16 35.679688v14.296874l-32.792969 9.359376c-13.664062 3.894531-23.207031 16.550781-23.207031 30.769531v37.894531h496v-37.894531c0-14.210938-9.542969-26.867188-23.207031-30.777344l-32.792969-9.359375v-14.289062c9.792969-8.792969 16-21.503907 16-35.679688v-16c0-17.71875-9.679688-33.191406-24-41.503906v-159.390625zm39.703125-16h-45.632812l-26.367188 22.609375v-22.609375h-40v-48h112zm-355.054688-112h246.109376l8 16h-262.109376zm-108.945312 96h144v48h-40v22.609375l-26.367188-22.609375h-77.632812zm40 240c0-17.648438 14.351562-32 32-32s32 14.351562 32 32v16c0 17.648438-14.351562 32-32 32s-32-14.351562-32-32zm112-8v-24h44.320312c-7.632812 8.503906-12.320312 19.695312-12.320312 32v16c0 14.167969 6.207031 26.878906 16 35.679688v14.296874l-32.792969 9.359376c-6.0625 1.734374-11.238281 5.257812-15.207031 9.808593-3.96875-4.550781-9.144531-8.074219-15.207031-9.808593l-32.792969-9.367188v-14.289062c9.792969-8.792969 16-21.503907 16-35.679688v-16c0-12.304688-4.6875-23.496094-12.320312-32h28.320312v24zm176 0v-24h28.320312c-7.632812 8.503906-12.320312 19.695312-12.320312 32v16c0 14.167969 6.207031 26.878906 16 35.679688v14.296874l-32.792969 9.359376c-6.0625 1.734374-11.238281 5.257812-15.207031 9.808593-3.96875-4.550781-9.144531-8.074219-15.207031-9.808593l-32.792969-9.367188v-14.289062c9.792969-8.792969 16-21.503907 16-35.679688v-16c0-12.304688-4.6875-23.496094-12.320312-32h44.320312v24zm-24 136h-144v-21.894531c0-7.113281 4.777344-13.433594 11.601562-15.386719l32.957032-9.414062c4.640625 6.046874 13.664062 14.695312 27.441406 14.695312s22.800781-8.648438 27.441406-14.703125l32.957032 9.414063c6.824218 1.960937 11.601562 8.28125 11.601562 15.394531zm-72-64c5.617188 0 10.984375-1.023438 16-2.800781v8.601562c-1.984375 3.0625-7.496094 10.199219-16 10.199219s-14.015625-7.144531-16-10.199219v-8.601562c5.015625 1.777343 10.382812 2.800781 16 2.800781zm32-64v16c0 17.648438-14.351562 32-32 32s-32-14.351562-32-32v-16c0-17.648438 14.351562-32 32-32s32 14.351562 32 32zm-192 64c5.617188 0 10.984375-1.023438 16-2.800781v8.601562c-1.984375 3.0625-7.496094 10.199219-16 10.199219s-14.015625-7.144531-16-10.199219v-8.601562c5.015625 1.777343 10.382812 2.800781 16 2.800781zm-72 42.105469c0-7.113281 4.777344-13.433594 11.601562-15.386719l32.957032-9.414062c4.640625 6.046874 13.664062 14.695312 27.441406 14.695312s22.800781-8.648438 27.441406-14.703125l32.957032 9.414063c6.824218 1.960937 11.601562 8.28125 11.601562 15.394531v21.894531h-144zm452.390625-15.386719c6.832031 1.953125 11.609375 8.273438 11.609375 15.386719v21.894531h-144v-21.894531c0-7.113281 4.777344-13.433594 11.601562-15.386719l32.957032-9.414062c4.640625 6.046874 13.664062 14.695312 27.441406 14.695312s22.800781-8.648438 27.441406-14.703125zm-44.390625-20.917969c-1.984375 3.0625-7.496094 10.199219-16 10.199219s-14.015625-7.144531-16-10.199219v-8.601562c5.015625 1.785156 10.382812 2.800781 16 2.800781s10.984375-1.023438 16-2.800781zm16-53.800781c0 17.648438-14.351562 32-32 32s-32-14.351562-32-32v-16c0-17.648438 14.351562-32 32-32s32 14.351562 32 32zm-360-64v-16h203.3125l32-32h100.6875v48zm168-120c-22.054688 0-40-17.945312-40-40v-24c0-22.054688 17.945312-40 40-40s40 17.945312 40 40v24c0 22.054688-17.945312 40-40 40zm0 16c5.558594 0 10.929688-.839844 16-2.359375v8.152344c-1.984375 3.070312-7.496094 10.207031-16 10.207031s-14.015625-7.144531-16-10.199219v-8.152343c5.070312 1.511718 10.441406 2.351562 16 2.351562zm-27.382812 17.367188c4.65625 6.046874 13.664062 14.632812 27.382812 14.632812s22.726562-8.585938 27.382812-14.632812l51.503907 15.457031c4.335937 1.304687 8.082031 3.871093 11.007812 7.175781h-29.207031l-32 32h-124.6875v-16.183594c0-10.679687 6.871094-19.921875 17.105469-22.992187zm195.382812 22.632812h-59.328125c-4.648437-10.710938-13.824219-19.089844-25.183594-22.503906l-51.488281-15.449219v-12.160156c14.488281-10.132813 24-26.910157 24-45.886719v-24c0-30.871094-25.121094-56-56-56s-56 25.128906-56 56v24c0 18.976562 9.511719 35.761719 24 45.886719v12.160156l-51.496094 15.449219c-17.046875 5.113281-28.503906 20.511718-28.503906 38.320312v16.183594h-56v-96h7.703125l48.296875 41.390625v-41.390625h40v-80h-96v-48h336v16h-64v80h40v41.390625l24-20.566406zm0 0"/><path d="m448 96h16v16h-16zm0 0"/><path d="m384 96h48v16h-48zm0 0"/><path d="m384 272h16v16h-16zm0 0"/><path d="m352 272h16v16h-16zm0 0"/><path d="m320 272h16v16h-16zm0 0"/></svg>