<svg height="496pt" viewBox="0 0 496 496" width="496pt" xmlns="http://www.w3.org/2000/svg"><path d="m496 144c0-13.230469-10.769531-24-24-24-3.40625 0-6.640625.734375-9.574219 2.015625l-81.21875-87.023437c1.730469-3.304688 2.792969-7.007813 2.792969-10.992188 0-13.230469-10.769531-24-24-24s-24 10.769531-24 24 10.769531 24 24 24c3.40625 0 6.640625-.734375 9.574219-2.015625l81.21875 87.023437c-1.730469 3.304688-2.792969 7.007813-2.792969 10.992188 0 7.863281 3.855469 14.800781 9.71875 19.183594l-50.734375 164.921875c-12.753906.542969-22.984375 11.007812-22.984375 23.894531 0 13.230469 10.769531 24 24 24 1.207031 0 2.375-.183594 3.535156-.359375l42.800782 80.238281c-3.894532 4.273438-6.335938 9.898438-6.335938 16.121094 0 13.230469 10.769531 24 24 24s24-10.769531 24-24-10.769531-24-24-24c-1.207031 0-2.375.183594-3.535156.359375l-42.800782-80.238281c3.894532-4.273438 6.335938-9.898438 6.335938-16.121094 0-7.863281-3.855469-14.800781-9.71875-19.183594l50.734375-164.921875c12.753906-.542969 22.984375-11.007812 22.984375-23.894531zm-16 0c0 4.40625-3.585938 8-8 8s-8-3.59375-8-8 3.585938-8 8-8 8 3.59375 8 8zm-128-120c0-4.40625 3.585938-8 8-8s8 3.59375 8 8-3.585938 8-8 8-8-3.59375-8-8zm48 328c0-4.40625 3.585938-8 8-8s8 3.59375 8 8-3.585938 8-8 8-8-3.59375-8-8zm80 120c0 4.40625-3.585938 8-8 8s-8-3.59375-8-8 3.585938-8 8-8 8 3.59375 8 8zm0 0"/><path d="m386.207031 283.390625c24.015625-21.191406 37.792969-51.703125 37.792969-83.726563 0-61.566406-50.097656-111.664062-111.664062-111.664062h-2.65625c-2.085938 0-4.183594.054688-6.289063.175781.035156-.230469.023437-.464843.050781-.695312.34375-2.449219.558594-4.9375.558594-7.480469v-24c0-30.878906-25.128906-56-56-56s-56 25.121094-56 56v24c0 2.640625.222656 5.222656.574219 7.761719.019531.132812.011719.277343.035156.414062-2.105469-.121093-4.203125-.175781-6.289063-.175781h-2.65625c-61.566406 0-111.664062 50.097656-111.664062 111.664062 0 32.023438 13.777344 62.535157 37.792969 83.726563l95.886719 84.609375h-5.679688v16h16v16h-16v16h16v80h64v-80h16v-16h-16v-16h16v-16h-5.679688zm-178.207031-227.390625c0-22.054688 17.945312-40 40-40s40 17.945312 40 40v24c0 2.175781-.246094 4.335938-.609375 6.480469-.109375.640625-.238281 1.273437-.382813 1.902343-.28125 1.289063-.6875 2.554688-1.097656 3.816407-2.949218 8.511719-9.015625 15.730469-17.917968 20.878906l-3.992188 2.304687v26.410157c-1.984375 3.0625-7.496094 10.207031-16 10.207031s-14.015625-7.144531-16-10.207031v-8.121094c5.070312 1.511719 10.449219 2.328125 16 2.328125v-16c-16.488281 0-30.671875-10.039062-36.785156-24.320312l-.144532-.359376c-.484374-1.175781-.765624-2.449218-1.140624-3.679687-.417969-1.335937-.898438-2.664063-1.160157-4.03125-.480469-2.464844-.769531-5-.769531-7.609375zm88 136v56h-96v-56h-16v56h-32v-56.191406c0-10.679688 6.871094-19.921875 17.105469-22.984375l51.511719-15.457031c4.65625 6.046874 13.664062 14.632812 27.382812 14.632812s22.726562-8.585938 27.382812-14.632812l51.511719 15.457031c10.234375 3.0625 17.105469 12.304687 17.105469 22.984375v56.191406h-32v-56zm-175.632812 79.390625c-20.566407-18.152344-32.367188-44.292969-32.367188-71.726563 0-52.753906 42.910156-95.664062 95.664062-95.664062h2.65625c3.832032 0 7.695313.3125 11.542969.777344 4.207031 8.480468 10.433594 15.773437 18.136719 21.160156v12.109375l-51.496094 15.449219c-17.046875 5.113281-28.503906 20.503906-28.503906 38.3125v72.191406h224v-72.191406c0-17.808594-11.457031-33.199219-28.503906-38.3125l-51.496094-15.449219v-13.632813c7.734375-5.269531 13.769531-11.957031 17.855469-19.605468 3.9375-.488282 7.898437-.808594 11.824219-.808594h2.65625c52.753906 0 95.664062 42.910156 95.664062 95.664062 0 27.433594-11.800781 53.574219-32.367188 71.726563l-109.496093 96.609375h-36.28125zm143.632812 208.609375h-32v-64h32zm0-80h-32v-16h32zm0 0"/><path d="m84.464844 375.640625c1.160156.175781 2.328125.359375 3.535156.359375 13.230469 0 24-10.769531 24-24 0-12.886719-10.230469-23.351562-22.984375-23.894531l-50.734375-164.921875c5.863281-4.382813 9.71875-11.320313 9.71875-19.183594 0-3.984375-1.0625-7.6875-2.792969-10.992188l81.21875-87.03125c2.941407 1.289063 6.167969 2.023438 9.574219 2.023438 13.230469 0 24-10.769531 24-24s-10.769531-24-24-24-24 10.769531-24 24c0 3.984375 1.0625 7.6875 2.792969 10.992188l-81.21875 87.023437c-2.933594-1.28125-6.167969-2.015625-9.574219-2.015625-13.230469 0-24 10.769531-24 24 0 12.886719 10.230469 23.351562 22.984375 23.894531l50.734375 164.921875c-5.863281 4.382813-9.71875 11.320313-9.71875 19.183594 0 6.222656 2.441406 11.847656 6.335938 16.113281l-42.800782 80.238281c-1.160156-.167968-2.328125-.351562-3.535156-.351562-13.230469 0-24 10.769531-24 24s10.769531 24 24 24 24-10.769531 24-24c0-6.222656-2.441406-11.847656-6.335938-16.113281zm11.535156-23.640625c0 4.40625-3.585938 8-8 8s-8-3.59375-8-8 3.585938-8 8-8 8 3.59375 8 8zm40-336c4.414062 0 8 3.59375 8 8s-3.585938 8-8 8-8-3.59375-8-8 3.585938-8 8-8zm-120 128c0-4.40625 3.585938-8 8-8s8 3.59375 8 8-3.585938 8-8 8-8-3.59375-8-8zm8 336c-4.414062 0-8-3.59375-8-8s3.585938-8 8-8 8 3.59375 8 8-3.585938 8-8 8zm0 0"/><path d="m96 448h16v16h-16zm0 0"/><path d="m80 464h16v16h-16zm0 0"/><path d="m96 480h16v16h-16zm0 0"/><path d="m112 464h16v16h-16zm0 0"/><path d="m352 360h16v16h-16zm0 0"/><path d="m336 376h16v16h-16zm0 0"/><path d="m352 392h16v16h-16zm0 0"/><path d="m368 376h16v16h-16zm0 0"/><path d="m16 280h16v16h-16zm0 0"/><path d="m0 296h16v16h-16zm0 0"/><path d="m16 312h16v16h-16zm0 0"/><path d="m32 296h16v16h-16zm0 0"/><path d="m464 0h16v16h-16zm0 0"/><path d="m448 16h16v16h-16zm0 0"/><path d="m464 32h16v16h-16zm0 0"/><path d="m480 16h16v16h-16zm0 0"/><path d="m16 0h16v16h-16zm0 0"/><path d="m0 16h16v16h-16zm0 0"/><path d="m16 32h16v16h-16zm0 0"/><path d="m32 16h16v16h-16zm0 0"/></svg>