<svg height="496pt" viewBox="0 -1 496 495" width="496pt" xmlns="http://www.w3.org/2000/svg"><path d="m359.671875 252.652344h44.328125l24 32h68l-30-40 30-40h-68l-24 32h-44.328125c-3.273437-46.535156-34.808594-85.960938-79.671875-99.25v-52.75h41.632812l-73.632812-84.152344-73.632812 84.152344h41.632812v16h16v-32h-22.367188l38.367188-43.847656 38.367188 43.847656h-22.367188v81.222656l6.160156 1.457031c40.855469 9.671875 70.121094 44.144531 73.503906 85.320313h-16.0625c-4.035156-40.367188-38.1875-72-79.59375-72-44.113281 0-80 35.886718-80 80 0 44.113281 35.886719 80 80 80 41.40625 0 75.566407-31.632813 79.59375-72h16.0625c-3.382812 41.175781-32.648437 75.648437-73.503906 85.320312l-6.160156 1.457032v89.222656h-32v-89.222656l-6.160156-1.457032c-43.472656-10.289062-73.839844-48.664062-73.839844-93.320312s30.367188-83.03125 73.839844-93.320313l6.160156-1.457031v-33.222656h-16v20.75c-47.414062 14.042968-80 57.273437-80 107.25 0 49.976562 32.585938 93.207031 80 107.246094v13.25c-108.777344 3.351562-216 24.007812-216 63.503906 0 42.015625 124.761719 64 248 64s248-21.984375 248-64c0-39.496094-107.222656-60.152344-216-63.496094v-13.25c44.863281-13.292969 76.398438-52.71875 79.671875-99.253906zm76.328125 16-12-16h28l12 16zm0-48h28l-12 16h-28zm-188 88c-35.289062 0-64-28.710938-64-64 0-35.289063 28.710938-64 64-64 32.574219 0 59.488281 24.480468 63.449219 56h-16.167969c-3.824219-22.664063-23.539062-40-47.28125-40-26.472656 0-48 21.527344-48 48s21.527344 48 48 48c23.734375 0 43.449219-17.335938 47.28125-40h16.167969c-3.960938 31.519531-30.875 56-63.449219 56zm30.863281-56c-3.574219 13.757812-15.992187 24-30.863281 24-17.648438 0-32-14.351563-32-32 0-17.648438 14.351562-32 32-32 14.871094 0 27.289062 10.238281 30.863281 24h-30.863281v16zm201.136719 176c0 20.039062-88.257812 48-232 48s-232-27.960938-232-48c0-17.167969 71.214844-43.433594 200-47.441406v15.441406h-80v32h-40v16h56v-32h64v16h-16v16h96v-16h-16v-16h64v32h56v-16h-40v-32h-80v-15.441406c128.785156 4.007812 200 30.273437 200 47.441406zm0 0"/><path d="m416 428.652344h16v16h-16zm0 0"/><path d="m64 428.652344h16v16h-16zm0 0"/><path d="m312 428.652344h16v16h-16zm0 0"/><path d="m168 428.652344h16v16h-16zm0 0"/></svg>