<svg height="496pt" viewBox="0 0 496.008 496" width="496pt" xmlns="http://www.w3.org/2000/svg"><path d="m368 480.003906h-48v-256h-16v256h-16v-184h-16v184h-32v-184h-12.6875l34.34375-34.34375-11.3125-11.3125-61.65625 61.65625h35.3125v168h-60.921875l30.410156-30.40625-11.425781-17.144531c2.304688-4.441406 4.21875-9.074219 5.738281-13.847656l20.199219-4.050781v-45.109376l-20.191406-4.050781c-1.519532-4.78125-3.441406-9.414062-5.738282-13.847656l11.425782-17.144531-31.894532-31.894532-17.136718 11.433594c-4.441406-2.304687-9.074219-4.226562-13.855469-5.746094l-4.050781-20.191406h-45.117188l-4.042968 20.191406c-4.78125 1.511719-9.414063 3.441407-13.855469 5.746094l-17.136719-11.433594-31.894531 31.894532 11.425781 17.144531c-2.304688 4.441406-4.21875 9.074219-5.738281 13.847656l-20.199219 4.058594v45.109375l20.191406 4.050781c1.519532 4.78125 3.441406 9.414063 5.738282 13.847657l-11.425782 17.144531 31.894532 31.894531 17.136718-11.433594c4.441406 2.304688 9.074219 4.226563 13.855469 5.746094l4.050781 20.191406h302.558594v-176h-16zm-238.238281 0 .839843-4.191406c4.78125-1.511719 9.414063-3.441406 13.855469-5.746094l14.894531 9.9375zm15.308593-28.75-4.335937 2.574219c-5.902344 3.519531-12.292969 6.167969-19 7.871094l-4.878906 1.242187-3.414063 17.0625h-18.882812l-3.414063-17.054687-4.878906-1.242188c-6.707031-1.710937-13.097656-4.351562-19-7.871093l-4.335937-2.574219-14.480469 9.644531-13.351563-13.351562 9.65625-14.488282-2.585937-4.328125c-3.511719-5.894531-6.160157-12.285156-7.863281-18.992187l-1.242188-4.886719-17.0625-3.40625v-18.890625l17.054688-3.40625 1.242187-4.886719c1.703125-6.707031 4.351563-13.097656 7.863281-18.992187l2.582032-4.328125-9.652344-14.488281 13.351562-13.351563 14.480469 9.648437 4.335937-2.578124c5.902344-3.519532 12.292969-6.167969 19-7.871094l4.878907-1.242188 3.421875-17.0625h18.882812l3.414063 17.054688 4.878906 1.242187c6.707031 1.710938 13.097656 4.351563 19 7.871094l4.335937 2.574219 14.480469-9.644532 13.351563 13.351563-9.65625 14.488281 2.585937 4.328125c3.511719 5.894531 6.160157 12.285157 7.863281 18.992188l1.242188 4.886719 17.0625 3.40625v18.890624l-17.054688 3.40625-1.242187 4.886719c-1.703125 6.707031-4.351563 13.097657-7.863281 18.992188l-2.582032 4.328125 9.652344 14.488281-13.351562 13.351563zm0 0"/><path d="m104 336.003906c-11.664062 0-22.878906 3.59375-32.425781 10.390625l9.28125 13.035157c6.824219-4.859376 14.824219-7.425782 23.144531-7.425782 22.054688 0 40 17.945313 40 40 0 8.320313-2.566406 16.320313-7.425781 23.144532l13.035156 9.28125c6.796875-9.554688 10.390625-20.761719 10.390625-32.425782 0-30.871094-25.121094-56-56-56zm0 0"/><path d="m104 432.003906c-22.054688 0-40-17.945312-40-40 0-8.320312 2.566406-16.320312 7.425781-23.144531l-13.035156-9.28125c-6.796875 9.554687-10.390625 20.761719-10.390625 32.425781 0 30.871094 25.121094 56 56 56 11.664062 0 22.878906-3.59375 32.425781-10.390625l-9.28125-13.035156c-6.824219 4.859375-14.824219 7.425781-23.144531 7.425781zm0 0"/><path d="m411.34375 269.019531-15.183594 18.984375h-12.160156v-152h38.320312l-78.320312-127.265625-78.320312 127.265625h38.320312v56h-12.160156l-15.183594-18.984375c-10.679688-13.351562-26.625-21.015625-43.726562-21.015625h-40.929688v8c0 30.878906 25.121094 56 56 56h16v-16h-16c-19.320312 0-35.480469-13.769531-39.191406-32h24.128906c12.214844 0 23.597656 5.472656 31.230469 15.007813l19.992187 24.992187h35.839844v-88h-25.679688l49.679688-80.734375 49.679688 80.734375h-25.679688v184h35.839844l19.992187-24.984375c7.640625-9.542969 19.015625-15.015625 31.238281-15.015625h24.128907c-3.710938 18.230469-19.878907 32-39.191407 32h-16v16h16c30.878907 0 56-25.128906 56-56v-8h-40.929687c-17.109375 0-33.054687 7.664063-43.734375 21.015625zm0 0"/><path d="m336 120.003906h16v16h-16zm0 0"/><path d="m336 152.003906h16v16h-16zm0 0"/><path d="m336 184.003906h16v16h-16zm0 0"/><path d="m336 216.003906h16v16h-16zm0 0"/><path d="m336 352.003906h16v16h-16zm0 0"/><path d="m336 384.003906h16v16h-16zm0 0"/><path d="m336 416.003906h16v16h-16zm0 0"/><path d="m336 448.003906h16v16h-16zm0 0"/><path d="m24 232.003906c13.230469 0 24-10.769531 24-24 0-7.976562-3.953125-15.007812-9.960938-19.375l27.28125-92.761718c6.9375-.382813 13.039063-3.703126 17.175782-8.757813l69.511718 24.824219c0 .023437-.007812.046875-.007812.070312 0 13.230469 10.769531 24 24 24s24-10.769531 24-24c0-3.695312-.902344-7.152344-2.40625-10.28125l56.117188-56.117187c3.136718 1.496093 6.59375 2.398437 10.289062 2.398437 13.230469 0 24-10.769531 24-24 0-13.230468-10.769531-23.99999975-24-23.99999975s-24 10.76953175-24 23.99999975c0 3.695313.902344 7.152344 2.40625 10.28125l-56.117188 56.117188c-3.136718-1.496094-6.59375-2.398438-10.289062-2.398438-7.480469 0-14.097656 3.511719-18.496094 8.894532l-69.511718-24.824219c0-.023438.007812-.046875.007812-.070313 0-13.230468-10.769531-24-24-24s-24 10.769532-24 24c0 7.976563 3.953125 15.007813 9.960938 19.375l-27.28125 92.761719c-12.609376.695313-22.679688 11.078125-22.679688 23.863281 0 13.230469 10.769531 24 24 24zm240-216c4.40625 0 8 3.59375 8 8s-3.59375 8-8 8-8-3.59375-8-8 3.59375-8 8-8zm-88 88c4.40625 0 8 3.59375 8 8s-3.59375 8-8 8-8-3.59375-8-8 3.59375-8 8-8zm-112-40c4.40625 0 8 3.59375 8 8s-3.59375 8-8 8-8-3.59375-8-8 3.59375-8 8-8zm-40 136c4.40625 0 8 3.59375 8 8s-3.59375 8-8 8-8-3.59375-8-8 3.59375-8 8-8zm0 0"/><path d="m176 216.003906h16v16h-16zm0 0"/><path d="m160 232.003906h16v16h-16zm0 0"/><path d="m176 248.003906h16v16h-16zm0 0"/><path d="m192 232.003906h16v16h-16zm0 0"/><path d="m96 144.003906h16v16h-16zm0 0"/><path d="m80 160.003906h16v16h-16zm0 0"/><path d="m96 176.003906h16v16h-16zm0 0"/><path d="m112 160.003906h16v16h-16zm0 0"/><path d="m136 .00390625h16v15.99999975h-16zm0 0"/><path d="m120 16.003906h16v16h-16zm0 0"/><path d="m136 32.003906h16v16h-16zm0 0"/><path d="m152 16.003906h16v16h-16zm0 0"/><path d="m464 160.003906h16v16h-16zm0 0"/><path d="m448 176.003906h16v16h-16zm0 0"/><path d="m464 192.003906h16v16h-16zm0 0"/><path d="m480 176.003906h16v16h-16zm0 0"/></svg>