<svg height="496pt" viewBox="0 0 496 496" width="496pt" xmlns="http://www.w3.org/2000/svg"><path d="m458.183594 296.296875 17.410156-24.359375-43.53125-43.53125-24.359375 17.410156c-6.382813-3.351562-13.078125-6.121094-20-8.273437l-4.925781-29.542969h-22.777344v-96h24c30.871094 0 56-25.128906 56-56v-8h-40c-15.664062 0-29.824219 6.480469-40 16.886719v-8.886719c0-30.871094-25.128906-56-56-56h-40v8c0 30.871094 25.128906 56 56 56h24v72.886719c-10.175781-10.40625-24.335938-16.886719-40-16.886719h-40v8c0 30.871094 25.128906 56 56 56h24v24h-22.777344l-4.925781 29.535156c-6.921875 2.160156-13.617187 4.921875-20 8.273438l-24.359375-17.410156-43.53125 43.53125 17.410156 24.359374c-3.351562 6.382813-6.121094 13.078126-8.273437 20l-22.847657 3.816407 2.625 15.78125 32.9375-5.496094 1.316407-5c2.386719-9.015625 5.945312-17.628906 10.601562-25.613281l2.601563-4.480469-15.464844-21.632813 24.359375-24.359374 21.632813 15.464843 4.480468-2.601562c7.984375-4.65625 16.597656-8.214844 25.613282-10.601563l5-1.320312 4.378906-26.246094h34.453125l4.378906 26.246094 5 1.320312c9.015625 2.386719 17.628906 5.945313 25.613281 10.601563l4.480469 2.601562 21.632813-15.464843 24.359374 24.359374-15.464843 21.632813 2.601562 4.480469c4.65625 7.984375 8.214844 16.597656 10.601563 25.613281l1.320312 5 26.246094 4.386719v34.453125l-26.246094 4.371093-1.320312 5c-2.386719 9.015626-5.945313 17.628907-10.601563 25.613282l-2.601562 4.480468 15.464843 21.632813-24.359374 24.359375-21.632813-15.464844-4.480469 2.601563c-7.984375 4.65625-16.597656 8.214843-25.613281 10.601562l-5.007813 1.328125-4.378906 26.246094h-34.453125l-4.371093-26.246094-5-1.320312c-9.015626-2.386719-17.628907-5.945313-25.613282-10.601563l-4.480468-2.601562-21.632813 15.464843-24.359375-24.359374 15.464844-21.632813-2.601563-4.480469c-4.65625-7.984375-8.214843-16.597656-10.601562-25.613281l-1.328125-5.007813-26.246094-4.378906v-25.222656h-208v-328h176v288h16v-304h-208v360h208v22.777344l29.535156 4.925781c2.160156 6.921875 4.921875 13.617187 8.273438 20l-17.410156 24.359375 43.53125 43.53125 24.359374-17.410156c6.382813 3.351562 13.078126 6.121094 20 8.273437l4.933594 29.542969h61.546875l4.925781-29.535156c6.921876-2.160156 13.617188-4.921875 20-8.273438l24.359376 17.410156 43.53125-43.53125-17.410157-24.359374c3.351563-6.382813 6.121094-13.078126 8.273438-20l29.550781-4.933594v-61.546875l-29.535156-4.925781c-2.160156-6.929688-4.929688-13.625-8.28125-20.007813zm-58.183594-232.296875h23.191406c-3.71875 18.230469-19.871094 32-39.191406 32h-23.191406c3.710937-18.230469 19.871094-32 39.191406-32zm-80-16c-19.320312 0-35.480469-13.769531-39.191406-32h23.191406c19.320312 0 35.480469 13.769531 39.191406 32zm0 120c-19.320312 0-35.480469-13.769531-39.191406-32h23.191406c19.320312 0 35.480469 13.769531 39.191406 32zm0 0"/><path d="m344 232h16v16h-16zm0 0"/><path d="m261.492188 272.804688 11.3125-11.3125 11.316406 11.3125-11.316406 11.3125zm0 0"/><path d="m232 344h16v16h-16zm0 0"/><path d="m261.492188 431.195312 11.3125-11.3125 11.316406 11.3125-11.316406 11.3125zm0 0"/><path d="m344 456h16v16h-16zm0 0"/><path d="m419.882812 431.195312 11.3125-11.3125 11.3125 11.3125-11.3125 11.3125zm0 0"/><path d="m456 344h16v16h-16zm0 0"/><path d="m419.882812 272.804688 11.3125-11.3125 11.3125 11.3125-11.3125 11.3125zm0 0"/><path d="m352 432c18.3125 0 35.566406-6.0625 49.910156-17.519531l-10-12.496094c-11.460937 9.167969-25.269531 14.015625-39.910156 14.015625-35.289062 0-64-28.710938-64-64 0-14.640625 4.847656-28.449219 14.023438-39.910156l-12.496094-10c-11.464844 14.34375-17.527344 31.597656-17.527344 49.910156 0 44.113281 35.886719 80 80 80zm0 0"/><path d="m312.089844 302.023438c11.460937-9.175782 25.269531-14.023438 39.910156-14.023438 35.289062 0 64 28.710938 64 64 0 14.648438-4.847656 28.449219-14.023438 39.902344l12.488282 10c11.472656-14.328125 17.535156-31.582032 17.535156-49.902344 0-44.113281-35.886719-80-80-80-18.3125 0-35.566406 6.0625-49.910156 17.519531zm0 0"/><path d="m344 328h16c4.414062 0 8 3.585938 8 8h16c0-13.230469-10.769531-24-24-24v-8h-16v8c-13.230469 0-24 10.769531-24 24s10.769531 24 24 24h16c4.414062 0 8 3.585938 8 8s-3.585938 8-8 8h-16c-4.414062 0-8-3.585938-8-8h-16c0 13.230469 10.769531 24 24 24v8h16v-8c13.230469 0 24-10.769531 24-24s-10.769531-24-24-24h-16c-4.414062 0-8-3.585938-8-8s3.585938-8 8-8zm0 0"/><path d="m96 152h16c4.414062 0 8 3.585938 8 8h16c0-13.230469-10.769531-24-24-24v-8h-16v8c-13.230469 0-24 10.769531-24 24s10.769531 24 24 24h16c4.414062 0 8 3.585938 8 8s-3.585938 8-8 8h-16c-4.414062 0-8-3.585938-8-8h-16c0 13.230469 10.769531 24 24 24v8h16v-8c13.230469 0 24-10.769531 24-24s-10.769531-24-24-24h-16c-4.414062 0-8-3.585938-8-8s3.585938-8 8-8zm0 0"/><path d="m72 48v-16h-40v40h16v-24zm0 0"/><path d="m176 32h-40v16h24v24h16zm0 0"/><path d="m32 288v40h40v-16h-24v-24zm0 0"/><path d="m136 312v16h40v-40h-16v24zm0 0"/><path d="m104 104c-39.703125 0-72 32.296875-72 72s32.296875 72 72 72 72-32.296875 72-72-32.296875-72-72-72zm0 128c-30.871094 0-56-25.128906-56-56s25.128906-56 56-56 56 25.128906 56 56-25.128906 56-56 56zm0 0"/><path d="m176 384h-160c-8.824219 0-16 7.175781-16 16v16c0 2.929688.847656 5.640625 2.222656 8-1.375 2.359375-2.222656 5.070312-2.222656 8v16c0 2.929688.847656 5.640625 2.222656 8-1.375 2.359375-2.222656 5.070312-2.222656 8v16c0 8.824219 7.175781 16 16 16h160c8.824219 0 16-7.175781 16-16v-16c0-2.929688-.847656-5.640625-2.222656-8 1.375-2.359375 2.222656-5.070312 2.222656-8v-16c0-2.929688-.847656-5.640625-2.222656-8 1.375-2.359375 2.222656-5.070312 2.222656-8v-16c0-8.824219-7.175781-16-16-16zm-160 16h160v16h-120v16h120v16h-160v-16h24v-16h-24zm0 80v-16h160l.015625 16zm0 0"/><path d="m480 160h16v16h-16zm0 0"/><path d="m480 192h16v16h-16zm0 0"/><path d="m480 224h16v16h-16zm0 0"/><path d="m448 96h16v16h-16zm0 0"/><path d="m448 128h16v16h-16zm0 0"/><path d="m448 160h16v16h-16zm0 0"/></svg>