<svg height="496pt" viewBox="0 0 496 496" width="496pt" xmlns="http://www.w3.org/2000/svg"><path d="m248 64c22.054688 0 40 17.945312 40 40 0 8.320312-2.566406 16.320312-7.425781 23.144531l13.035156 9.28125c6.796875-9.554687 10.390625-20.761719 10.390625-32.425781 0-30.871094-25.121094-56-56-56-11.664062 0-22.878906 3.59375-32.425781 10.390625l9.28125 13.035156c6.824219-4.859375 14.824219-7.425781 23.144531-7.425781zm0 0"/><path d="m248 160c11.664062 0 22.878906-3.59375 32.425781-10.390625l-9.28125-13.035156c-6.824219 4.859375-14.824219 7.425781-23.144531 7.425781-22.054688 0-40-17.945312-40-40 0-8.320312 2.566406-16.320312 7.425781-23.144531l-13.035156-9.28125c-6.796875 9.554687-10.390625 20.761719-10.390625 32.425781 0 30.871094 25.121094 56 56 56zm0 0"/><path d="m392 216h16v-128h-17.046875l33.046875-49.574219 33.046875 49.574219h-17.046875v152h16v-136h30.953125l-62.953125-94.425781-62.953125 94.425781h30.953125zm0 0"/><path d="m440 256h16v16h-16zm0 0"/><path d="m440 288h16v16h-16zm0 0"/><path d="m456 358.921875v-38.921875h-16v48.71875l4.40625 2.210938c22.953125 11.519531 35.59375 24.679687 35.59375 37.070312 0 34.054688-95.28125 72-232 72s-232-37.945312-232-72c0-12.390625 12.640625-25.550781 35.59375-37.070312l4.40625-2.210938v-48.71875h-16v38.921875c-32.921875 17.75-40 36.359375-40 49.078125 0 42.664062 86.921875 88 248 88s248-45.335938 248-88c0-12.71875-7.078125-31.328125-40-49.078125zm0 0"/><path d="m40 288h16v16h-16zm0 0"/><path d="m40 256h16v16h-16zm0 0"/><path d="m40 240h16v-152h-17.046875l33.046875-49.574219 33.046875 49.574219h-17.046875v128h16v-112h30.953125l-62.953125-94.425781-62.953125 94.425781h30.953125zm0 0"/><path d="m48 408h-16c0 41.089844 129.175781 56 216 56s216-14.910156 216-56h-16c0 13.960938-68.6875 40-200 40s-200-26.039062-200-40zm0 0"/><path d="m96 384h304v16h-304zm0 0"/><path d="m169.9375 144.457031-11.425781 17.144531 31.894531 31.894532 17.121094-11.417969c.160156.089844.320312.167969.472656.25v11.664063l-82.3125 23.945312c-17.480469 4.65625-29.6875 20.558594-29.6875 38.648438v111.414062h304v-111.414062c0-18.066407-12.167969-33.9375-29.601562-38.625l-82.398438-23.96875v-11.746094c.136719-.070313.273438-.140625.414062-.207032l17.179688 11.457032 31.894531-31.894532-11.425781-17.144531c2.304688-4.441406 4.21875-9.074219 5.738281-13.847656l20.199219-4.058594v-45.109375l-20.191406-4.050781c-1.519532-4.78125-3.441406-9.414063-5.738282-13.847656l11.425782-17.144531-31.894532-31.894532-17.136718 11.433594c-4.441406-2.304688-9.074219-4.226562-13.855469-5.746094l-4.050781-20.191406h-45.117188l-4.042968 20.191406c-4.78125 1.511719-9.414063 3.441406-13.855469 5.746094l-17.136719-11.433594-31.894531 31.894532 11.425781 17.144531c-2.304688 4.441406-4.21875 9.074219-5.738281 13.847656l-20.199219 4.058594v45.109375l20.191406 4.050781c1.519532 4.773437 3.441406 9.40625 5.746094 13.847656zm40.910156 65.375 12.96875 38.902344-14.753906 103.265625h-2l-6.894531-55.191406 9.625-28.855469-18.457031-9.226563-5.929688-41.488281zm28.089844 46.167969h18.125l13.714844 96h-45.554688zm19.292969-16h-20.46875l-6.699219-20.105469c5.203125 2.351563 10.945312 4.105469 16.9375 4.105469s11.734375-1.753906 16.9375-4.105469zm-146.230469 16.585938c0-10.859376 7.328125-20.402344 17.992188-23.242188l39.894531-11.601562 6.792969 47.539062 13.542968 6.773438-6.375 19.144531 7.089844 56.800781h-78.9375zm254.183594-23.195313c10.488281 2.792969 17.816406 12.335937 17.816406 23.195313v95.414062h-78.9375l7.105469-56.808594-6.375-19.144531 13.542969-6.773437 6.792968-47.539063 39.894532 11.601563zm-55.582032-16.160156-5.929687 41.488281-18.457031 9.226562 9.625 28.855469-6.902344 55.199219h-2l-14.753906-103.257812 12.96875-38.902344zm-150.601562-122.679688 17.054688-3.40625 1.242187-4.886719c1.703125-6.707031 4.351563-13.097656 7.863281-18.992187l2.582032-4.328125-9.652344-14.488281 13.351562-13.351563 14.480469 9.644532 4.335937-2.574219c5.902344-3.519531 12.292969-6.167969 19-7.871094l4.878907-1.242187 3.421875-17.054688h18.882812l3.414063 17.054688 4.878906 1.242187c6.707031 1.710937 13.097656 4.351563 19 7.871094l4.335937 2.574219 14.480469-9.644532 13.351563 13.351563-9.65625 14.488281 2.585937 4.328125c3.511719 5.894531 6.160157 12.285156 7.863281 18.992187l1.242188 4.886719 17.0625 3.40625v18.890625l-17.054688 3.40625-1.242187 4.886719c-1.703125 6.707031-4.351563 13.097656-7.863281 18.992187l-2.582032 4.328126 9.652344 14.488281-13.351562 13.351562-9.648438-6.429687-5.820312-2.695313-3.402344 2.03125c-2.488281 1.496094-5.144531 2.855469-7.902344 4.078125l-4.785156 2.105469v24.480469c-5.207031 4.480468-15.257812 11.535156-24 11.535156s-18.792969-7.054688-24-11.535156v-24.410156l-4.800781-2.09375c-2.511719-1.105469-5.109375-2.457032-7.933594-4.144532l-4.335937-2.578125-14.488282 9.648438-13.351562-13.351563 9.652344-14.488281-2.582032-4.328125c-3.511718-5.894531-6.160156-12.285156-7.863281-18.992188l-1.242187-4.886718-17.054688-3.390625zm0 0"/></svg>