<svg height="496pt" viewBox="0 0 496 496" width="496pt" xmlns="http://www.w3.org/2000/svg"><path d="m496 216h-32v-216h-16v216h-64.871094c-2.542968-9.191406-10.90625-16-20.890625-16h-10.238281v-16h48c8.824219 0 16-7.175781 16-16v-144c0-8.824219-7.175781-16-16-16h-192c-8.824219 0-16 7.175781-16 16v144c0 8.824219 7.175781 16 16 16h48v16h-10.230469c-9.992187 0-18.34375 6.808594-20.890625 16h-71.4375l8-48h-17.441406v-64h-16v64h-9.0625l-7.015625-49.136719-15.832031 2.265625 6.6875 46.871094h-24.226563l8 48h-38.550781v-216h-16v216h-32v48h16v232h48v-40h112v40h16v-232h44.902344l5.335937 16h13.761719v32h-8c-13.230469 0-24 10.769531-24 24v24h72v48h-64v41.472656c-9.289062 3.3125-16 12.113282-16 22.527344 0 13.230469 10.769531 24 24 24s24-10.769531 24-24c0-10.414062-6.710938-19.214844-16-22.527344v-25.472656h48v25.472656c-9.289062 3.3125-16 12.113282-16 22.527344 0 13.230469 10.769531 24 24 24s24-10.769531 24-24c0-10.414062-6.710938-19.214844-16-22.527344v-25.472656h48v25.472656c-9.289062 3.3125-16 12.113282-16 22.527344 0 13.230469 10.769531 24 24 24s24-10.769531 24-24c0-10.414062-6.710938-19.214844-16-22.527344v-41.472656h-64v-48h72v-24c0-13.230469-10.769531-24-24-24h-8v-32h13.769531l5.335938-16h60.894531v232h48v-232h16zm-256 264c-4.40625 0-8-3.59375-8-8s3.59375-8 8-8 8 3.59375 8 8-3.59375 8-8 8zm64 0c-4.40625 0-8-3.59375-8-8s3.59375-8 8-8 8 3.59375 8 8-3.59375 8-8 8zm64 0c-4.40625 0-8-3.59375-8-8s3.59375-8 8-8 8 3.59375 8 8-3.59375 8-8 8zm32-456 .007812 112h-192.007812v-112zm-192 128h192.007812v16h-192.007812zm64 32h64v16h-64zm-174.550781 0h45.109375l-5.328125 32h-34.445313zm-65.449219 296v-216h16v216zm32-152h112v48h-112zm0 112v-48h112v48zm112-128h-112v-48h112zm-160-64v-16h210.230469l5.335937 16zm352 88v8h-128v-8c0-4.40625 3.59375-8 8-8h112c4.40625 0 8 3.59375 8 8zm-32-24h-64v-32h64zm18.230469-48h-100.460938l-13.472656-40.40625c-.191406-.59375-.296875-1.210938-.296875-1.824219 0-3.183593 2.585938-5.769531 5.769531-5.769531h116.46875c3.175781 0 5.761719 2.585938 5.761719 5.769531 0 .621094-.105469 1.230469-.296875 1.824219zm109.769531 216h-16v-216h16zm16-232h-103.566406l5.335937-16h98.230469zm0 0"/><path d="m112 344h16v16h-16zm0 0"/><path d="m112 408h16v16h-16zm0 0"/><path d="m112 280h16v16h-16zm0 0"/></svg>