<svg height="496pt" viewBox="0 0 496 496" width="496pt" xmlns="http://www.w3.org/2000/svg"><path d="m314.183594 88.296875 17.402344-24.359375-43.53125-43.53125-24.351563 17.410156c-6.382813-3.351562-13.078125-6.121094-20-8.273437l-4.925781-29.542969h-61.554688l-4.925781 29.535156c-6.921875 2.160156-13.617187 4.921875-20 8.273438l-24.351563-17.410156-43.53125 43.53125 17.402344 24.359374c-3.34375 6.382813-6.113281 13.078126-8.273437 20l-29.542969 4.933594v61.546875l29.542969 4.925781c2.160156 6.921876 4.921875 13.617188 8.273437 20l-17.402344 24.359376 43.53125 43.53125 24.351563-17.410157c6.382813 3.351563 13.078125 6.121094 20 8.273438l4.925781 29.550781h61.554688l4.925781-29.535156c6.921875-2.160156 13.617187-4.921875 20-8.273438l24.351563 17.410156 43.53125-43.53125-17.402344-24.359374c3.34375-6.382813 6.113281-13.078126 8.273437-20l29.542969-4.933594v-61.546875l-29.542969-4.925781c-2.152343-6.929688-4.921875-13.625-8.273437-20.007813zm21.816406 72.925781-26.246094 4.378906-1.320312 4.992188c-2.386719 9.03125-5.953125 17.644531-10.601563 25.628906l-2.601562 4.472656 15.457031 21.632813-24.351562 24.359375-21.648438-15.464844-4.472656 2.601563c-7.984375 4.65625-16.597656 8.214843-25.621094 10.601562l-4.992188 1.328125-4.378906 26.246094h-34.445312l-4.378906-26.246094-5-1.320312c-9.015626-2.386719-17.636719-5.945313-25.621094-10.601563l-4.472656-2.601562-21.648438 15.464843-24.351562-24.359374 15.457031-21.632813-2.601563-4.472656c-4.648437-7.984375-8.207031-16.597657-10.601562-25.628907l-1.3125-5-26.246094-4.378906v-34.453125l26.246094-4.378906 1.320312-4.992187c2.386719-9.03125 5.953125-17.644532 10.601563-25.628907l2.601562-4.472656-15.457031-21.632813 24.351562-24.359374 21.648438 15.464843 4.472656-2.601562c7.984375-4.65625 16.597656-8.214844 25.621094-10.601563l4.992188-1.320312 4.378906-26.246094h34.445312l4.378906 26.246094 5 1.320312c9.015626 2.386719 17.636719 5.945313 25.621094 10.601563l4.472656 2.601562 21.648438-15.464843 24.351562 24.359374-15.457031 21.632813 2.601563 4.472656c4.648437 7.984375 8.207031 16.597657 10.601562 25.628907l1.320313 4.992187 26.238281 4.386719zm0 0"/><path d="m200 24h16v16h-16zm0 0"/><path d="m117.496094 64.804688 11.3125-11.3125 11.3125 11.3125-11.3125 11.3125zm0 0"/><path d="m88 136h16v16h-16zm0 0"/><path d="m117.496094 223.195312 11.3125-11.3125 11.3125 11.3125-11.3125 11.3125zm0 0"/><path d="m200 248h16v16h-16zm0 0"/><path d="m275.882812 223.195312 11.316407-11.3125 11.3125 11.3125-11.3125 11.3125zm0 0"/><path d="m312 136h16v16h-16zm0 0"/><path d="m275.886719 64.804688 11.3125-11.3125 11.3125 11.3125-11.3125 11.3125zm0 0"/><path d="m208 56c-48.519531 0-88 39.480469-88 88s39.480469 88 88 88 88-39.480469 88-88-39.480469-88-88-88zm0 160c-39.695312 0-72-32.296875-72-72s32.304688-72 72-72 72 32.296875 72 72-32.304688 72-72 72zm0 0"/><path d="m208 184c-22.054688 0-40-17.945312-40-40 0-8.320312 2.566406-16.320312 7.425781-23.144531l-13.035156-9.28125c-6.796875 9.554687-10.390625 20.761719-10.390625 32.425781 0 30.871094 25.121094 56 56 56 11.664062 0 22.878906-3.59375 32.425781-10.390625l-9.28125-13.035156c-6.824219 4.859375-14.824219 7.425781-23.144531 7.425781zm0 0"/><path d="m208 88c-11.664062 0-22.878906 3.59375-32.425781 10.390625l9.28125 13.035156c6.824219-4.859375 14.824219-7.425781 23.144531-7.425781 22.054688 0 40 17.945312 40 40 0 8.320312-2.566406 16.320312-7.425781 23.144531l13.035156 9.28125c6.796875-9.554687 10.390625-20.761719 10.390625-32.425781 0-30.871094-25.121094-56-56-56zm0 0"/><path d="m496 203.3125v-53.976562l-28-37.335938h-20v48h-32v-48h-20l-28 37.335938v53.976562l24 24v153.375l-24 24v53.976562l28 37.335938h20v-48h32v48h20l28-37.335938v-53.976562l-24-24v-153.375zm-16 208v42.023438l-16 21.328124v-42.664062h-64v42.664062l-16-21.328124v-42.023438l24-24v-166.625l-24-24v-42.023438l16-21.328124v42.664062h64v-42.664062l16 21.328124v42.023438l-24 24v166.625zm0 0"/><path d="m424 224h16v16h-16zm0 0"/><path d="m424 256h16v96h-16zm0 0"/><path d="m424 368h16v16h-16zm0 0"/><path d="m336 440h-48v40h-16v-80h-48v80h-16v-120h-48v120h-16v-160h-48v160h-16v-216h-48v216h-16v-264h-16v280h352v-16h-16zm-32 16h16v24h-16zm-64-40h16v64h-16zm-64-40h16v104h-16zm-64-40h16v144h-16zm-64-56h16v200h-16zm0 0"/><path d="m13.65625 61.65625 18.34375-18.34375 18.34375 18.34375 11.3125-11.3125-18.34375-18.34375 18.34375-18.34375-11.3125-11.3125-18.34375 18.34375-18.34375-18.34375-11.3125 11.3125 18.34375 18.34375-18.34375 18.34375zm0 0"/><path d="m293.65625 349.65625 18.34375-18.34375 18.34375 18.34375 11.3125-11.3125-18.34375-18.34375 18.34375-18.34375-11.3125-11.3125-18.34375 18.34375-18.34375-18.34375-11.3125 11.3125 18.34375 18.34375-18.34375 18.34375zm0 0"/><path d="m445.65625 61.65625 18.34375-18.34375 18.34375 18.34375 11.3125-11.3125-18.34375-18.34375 18.34375-18.34375-11.3125-11.3125-18.34375 18.34375-18.34375-18.34375-11.3125 11.3125 18.34375 18.34375-18.34375 18.34375zm0 0"/></svg>