<svg height="496pt" viewBox="-1 0 495 496" width="496pt" xmlns="http://www.w3.org/2000/svg"><path d="m144.5 96h16v16h-16zm0 0"/><path d="m61.992188 136.804688 11.316406-11.3125 11.3125 11.3125-11.3125 11.3125zm0 0"/><path d="m32.5 208h16v16h-16zm0 0"/><path d="m61.996094 295.195312 11.3125-11.3125 11.3125 11.3125-11.3125 11.3125zm0 0"/><path d="m220.382812 295.195312 11.316407-11.3125 11.3125 11.3125-11.3125 11.3125zm0 0"/><path d="m256.5 208h16v16h-16zm0 0"/><path d="m220.386719 136.804688 11.3125-11.3125 11.3125 11.3125-11.3125 11.3125zm0 0"/><path d="m298.84375 106.34375 11.3125 11.3125 26.34375-26.34375v300.6875c0 48.519531-39.480469 88-88 88s-88-39.480469-88-88v-.808594c18.230469-3.71875 32-19.871094 32-39.191406v-14.59375c6.167969-2.023438 12.167969-4.359375 17.792969-7.199219l28.640625 14.320313 42.09375-42.09375-14.320313-28.640625c2.863281-5.679688 5.335938-11.664063 7.359375-17.882813l30.433594-10.140625v-59.53125l-30.433594-10.140625c-2.03125-6.226562-4.496094-12.210937-7.359375-17.882812l14.320313-28.640625-42.09375-42.09375-28.640625 14.320312c-5.671875-2.863281-11.65625-5.328125-17.882813-7.351562l-10.140625-30.449219h-59.53125l-10.140625 30.441406c-6.226562 2.03125-12.210937 4.496094-17.882812 7.351563l-28.640625-14.320313-42.09375 42.09375 14.320312 28.640625c-2.863281 5.671875-5.328125 11.65625-7.359375 17.882813l-30.441406 10.140625v59.53125l30.433594 10.140625c2.023437 6.21875 4.496094 12.203125 7.359375 17.882812l-14.320313 28.640625 42.09375 42.09375 28.640625-14.320312c5.625 2.839843 11.625 5.175781 17.792969 7.199219v14.601562c0 19.3125 13.769531 35.472656 32 39.191406v.808594c0 57.34375 46.65625 104 104 104s104-46.65625 104-104v-300.6875l26.34375 26.34375 11.3125-11.3125-45.65625-45.65625zm-117.792969 197.65625h-20.550781v-49.472656c9.289062-3.3125 16-12.113282 16-22.527344 0-13.230469-10.769531-24-24-24s-24 10.769531-24 24c0 10.414062 6.710938 19.214844 16 22.527344v49.472656h-20.480469c-3.855469-9.175781-10.03125-17.238281-18.175781-23.097656-24.105469-17.328125-36.589844-46.476563-32.589844-76.085938 4.789063-35.503906 34.148438-64.214844 69.804688-68.28125 3.203125-.367187 6.386718-.542968 9.546875-.542968 19.695312 0 38.285156 7.039062 53.140625 20.304687 17 15.175781 26.753906 36.933594 26.753906 59.703125 0 25.488281-12.351562 49.664062-33.03125 64.679688-8.25 5.984374-14.511719 14.128906-18.417969 23.320312zm-36.550781-72c0-4.40625 3.59375-8 8-8s8 3.59375 8 8-3.59375 8-8 8-8-3.59375-8-8zm-16.34375 88h48.6875c-.199219 1.929688-.34375 3.863281-.34375 5.824219v10.175781h-48v-10.167969c0-1.960937-.144531-3.902343-.34375-5.832031zm-33.175781-7.816406-25.753907 12.871094-25.78125-25.78125 12.871094-25.753907-2.015625-3.679687c-3.824219-6.945313-6.9375-14.496094-9.257812-22.457032l-1.167969-4.023437-27.375-9.128906v-36.46875l27.367188-9.121094 1.175781-4.023437c2.328125-7.976563 5.441406-15.527344 9.257812-22.464844l2.015625-3.679688-12.871094-25.753906 25.78125-25.78125 25.753907 12.871094 3.679687-2.015625c6.929688-3.816407 14.488282-6.929688 22.464844-9.257813l4.023438-1.175781 9.121093-27.359375h36.46875l9.121094 27.367188 4.023437 1.175781c7.976563 2.328125 15.527344 5.441406 22.464844 9.257812l3.679688 2.015625 25.753906-12.871094 25.78125 25.78125-12.871094 25.753907 2.015625 3.679687c3.816407 6.929688 6.929688 14.488282 9.257813 22.464844l1.175781 4.023438 27.359375 9.121093v36.46875l-27.367188 9.121094-1.167968 4.023437c-2.320313 7.960938-5.433594 15.511719-9.257813 22.457032l-2.015625 3.679687 12.871094 25.753907-25.78125 25.78125-25.753906-12.871094-3.679688 2.015625c-4.230468 2.328125-8.757812 4.296875-13.414062 6.089843 1.496094-10.617187 7.191406-20.320312 15.933594-26.664062 24.816406-18.007812 39.632812-47.03125 39.632812-77.625 0-27.328125-11.695312-53.441406-32.097656-71.648438-20.382813-18.191406-47.804688-26.839843-75.148438-23.710937-42.824218 4.878906-78.089844 39.382813-83.851562 82.03125-4.789063 35.488281 10.195312 70.441406 39.113281 91.222656 8.542969 6.144531 14.121094 15.753907 15.578125 26.394531-4.65625-1.792968-9.195312-3.761718-13.425781-6.089843zm33.519531 39.816406h48c0 13.230469-10.769531 24-24 24s-24-10.769531-24-24zm0 0"/><path d="m344.5 48c13.230469 0 24-10.769531 24-24s-10.769531-24-24-24-24 10.769531-24 24 10.769531 24 24 24zm0-32c4.40625 0 8 3.59375 8 8s-3.59375 8-8 8-8-3.59375-8-8 3.59375-8 8-8zm0 0"/><path d="m14.15625 61.65625 18.34375-18.34375 18.34375 18.34375 11.3125-11.3125-18.34375-18.34375 18.34375-18.34375-11.3125-11.3125-18.34375 18.34375-18.34375-18.34375-11.3125 11.3125 18.34375 18.34375-18.34375 18.34375zm0 0"/><path d="m494.15625 221.65625-11.3125-11.3125-18.34375 18.34375-18.34375-18.34375-11.3125 11.3125 18.34375 18.34375-18.34375 18.34375 11.3125 11.3125 18.34375-18.34375 18.34375 18.34375 11.3125-11.3125-18.34375-18.34375zm0 0"/><path d="m50.84375 434.34375-18.34375 18.34375-18.34375-18.34375-11.3125 11.3125 18.34375 18.34375-18.34375 18.34375 11.3125 11.3125 18.34375-18.34375 18.34375 18.34375 11.3125-11.3125-18.34375-18.34375 18.34375-18.34375zm0 0"/><path d="m432.5 392c-13.230469 0-24 10.769531-24 24s10.769531 24 24 24 24-10.769531 24-24-10.769531-24-24-24zm0 32c-4.40625 0-8-3.59375-8-8s3.59375-8 8-8 8 3.59375 8 8-3.59375 8-8 8zm0 0"/></svg>