<svg height="496pt" viewBox="-40 0 496 496" width="496pt" xmlns="http://www.w3.org/2000/svg"><path d="m216 312h-16c-4.414062 0-8-3.59375-8-8h-16c0 13.230469 10.769531 24 24 24v8h16v-8c13.230469 0 24-10.769531 24-24s-10.769531-24-24-24h-16c-4.414062 0-8-3.59375-8-8s3.585938-8 8-8h16c4.414062 0 8 3.59375 8 8h16c0-13.230469-10.769531-24-24-24v-8h-16v8c-13.230469 0-24 10.769531-24 24s10.769531 24 24 24h16c4.414062 0 8 3.59375 8 8s-3.585938 8-8 8zm0 0"/><path d="m200 416h16v16h-16zm0 0"/><path d="m374.9375 337.664062c-16.351562-4.753906-37.265625-8.734374-61.699219-11.726562 4.296875-11.867188 6.761719-24.601562 6.761719-37.9375 0-47.65625-29.96875-88.335938-72-104.488281v-74.824219l-37.65625 37.65625 11.3125 11.3125 10.34375-10.34375v31.34375c-7.742188-1.695312-15.761719-2.65625-24-2.65625s-16.257812.960938-24 2.65625v-108.128906c9.289062-3.3125 16-12.113282 16-22.527344s-6.710938-19.214844-16-22.527344v-25.472656h-16v25.472656c-9.289062 3.3125-16 12.113282-16 22.527344s6.710938 19.214844 16 22.527344v112.984375c-42.03125 16.152343-72 56.832031-72 104.488281 0 13.335938 2.464844 26.070312 6.761719 37.945312-24.433594 2.984376-45.347657 6.976563-61.699219 11.726563l-5.71875-16.320313-35.34375 35.335938v35.3125c0 25.023438 30.695312 43.871094 74.664062 56h-26.664062c-22.054688 0-40 17.945312-40 40v8h400v-8c0-22.054688-17.945312-40-40-40h-26.664062c43.96875-12.128906 74.664062-30.976562 74.664062-56v-35.3125l-35.34375-35.335938zm-198.9375-297.664062c4.414062 0 8 3.59375 8 8s-3.585938 8-8 8-8-3.59375-8-8 3.585938-8 8-8zm193.632812 312.792969-11.097656 31.664062-23.933594-31.554687-24.753906 49.488281-29.007812-29.503906c10.34375-8.886719 19.105468-19.566407 25.65625-31.640625 24.960937 2.890625 46.71875 6.875 63.136718 11.546875zm-122.832031 61.917969c-1.703125-7.101563-5.25-13.488282-10.183593-18.558594 13.863281-3.671875 26.65625-9.921875 37.871093-18.242188l-16.054687 36c-3.785156.320313-7.722656.554688-11.632813.800782zm-89.242187-.800782-16.054688-36c11.214844 8.320313 24.007813 14.570313 37.871094 18.242188-4.933594 5.070312-8.480469 11.457031-10.183594 18.558594-3.902344-.246094-7.839844-.480469-11.632812-.800782zm26.441406 10.089844c0-13.230469 10.769531-24 24-24s24 10.769531 24 24-10.769531 24-24 24-24-10.769531-24-24zm164.105469-26.808594c-6.351563 2.074219-13.28125 4.015625-20.671875 5.839844l9.964844-19.941406zm-53.625 12.402344c-5.710938.894531-11.585938 1.71875-17.695313 2.445312l6.269532-14.0625zm-86.480469-217.59375c7.390625 0 14.558594.921875 21.472656 2.503906-3.914062 7.960938-12.023437 13.496094-21.472656 13.496094v16c16.601562 0 30.855469-10.167969 36.902344-24.601562 34.664062 14.488281 59.097656 48.738281 59.097656 88.601562 0 52.9375-43.0625 96-96 96s-96-43.0625-96-96 43.0625-96 96-96zm-98.503906 149.265625c6.550781 12.070313 15.3125 22.75 25.65625 31.636719l-29.007813 29.503906-24.753906-49.484375-23.933594 31.550781-11.097656-31.664062c16.425781-4.6875 38.183594-8.671875 63.136719-11.542969zm29.710937 70.773437c-6.101562-.726562-11.984375-1.550781-17.695312-2.445312l11.417969-11.617188zm-50.640625-9.007812c-7.390625-1.816406-14.320312-3.757812-20.671875-5.839844l10.707031-14.101562zm-47.414062-16.734375c-14.535156-7.5625-22.984375-15.710937-24.679688-23.457031l12.183594-12.183594zm-25.152344 5.703125v-3.121094c28.695312 23.875 91.664062 37.984375 152.6875 41.890625 1.039062 6.039063 3.390625 11.589844 6.824219 16.382813-95.464844-4.96875-159.511719-31.28125-159.511719-55.152344zm352 72c10.433594 0 19.328125 6.6875 22.632812 16h-365.265624c3.304687-9.3125 12.199218-16 22.632812-16zm-127.503906-16.847656c3.425781-4.792969 5.785156-10.351563 6.824218-16.382813 61.015626-3.898437 123.984376-18.007812 152.679688-41.890625v3.121094c0 23.871094-64.046875 50.183594-159.503906 55.152344zm159.03125-84.3125c-1.703125 7.746094-10.144532 15.894531-24.679688 23.457031l12.496094-35.640625zm0 0"/><path d="m0 0h16v16h-16zm0 0"/><path d="m0 32h16v64h-16zm0 0"/><path d="m0 112h16v64h-16zm0 0"/><path d="m32 48h16v16h-16zm0 0"/><path d="m32 80h16v64h-16zm0 0"/><path d="m32 160h16v64h-16zm0 0"/><path d="m64 96h16v16h-16zm0 0"/><path d="m64 128h16v64h-16zm0 0"/><path d="m64 208h16v64h-16zm0 0"/><path d="m400 0h16v16h-16zm0 0"/><path d="m400 32h16v64h-16zm0 0"/><path d="m400 112h16v64h-16zm0 0"/><path d="m368 48h16v16h-16zm0 0"/><path d="m368 80h16v64h-16zm0 0"/><path d="m368 160h16v64h-16zm0 0"/><path d="m336 96h16v16h-16zm0 0"/><path d="m336 128h16v64h-16zm0 0"/><path d="m336 208h16v64h-16zm0 0"/></svg>