<svg height="496pt" viewBox="0 -2 496 496" width="496pt" xmlns="http://www.w3.org/2000/svg"><path d="m232 187.3125c0-2.289062.542969-4.59375 1.625-6.847656l-14.449219-6.871094c-2.105469 4.414062-3.175781 9.03125-3.175781 13.71875 0 17.648438 14.351562 32 32 32 4.6875 0 9.3125-1.074219 13.734375-3.175781l-6.886719-14.441407c-10.9375 5.191407-22.847656-3.269531-22.847656-14.382812zm0 0"/><path d="m248 155.3125c-4.6875 0-9.3125 1.070312-13.734375 3.175781l6.886719 14.441407c10.9375-5.203126 22.847656 3.269531 22.847656 14.382812 0 2.289062-.542969 4.589844-1.625 6.847656l14.449219 6.871094c2.105469-4.414062 3.175781-9.03125 3.175781-13.71875 0-17.648438-14.351562-32-32-32zm0 0"/><path d="m336 83.3125h60.6875l-10.34375 10.34375 11.3125 11.3125 29.65625-29.65625-29.65625-29.65625-11.3125 11.3125 10.34375 10.34375h-76.6875v64h16zm0 0"/><path d="m109.65625 93.65625-10.34375-10.34375h60.6875v48h16v-64h-76.6875l10.34375-10.34375-11.3125-11.3125-29.65625 29.65625 29.65625 29.65625zm0 0"/><path d="m176.230469 361.386719 3.996093-16.003907 15.523438 3.875-3.996094 16.003907zm0 0"/><path d="m240 387.3125h16v16h-16zm0 0"/><path d="m300.210938 349.246094 15.523437-3.878906 4 16-15.523437 3.882812zm0 0"/><path d="m456 339.3125c22.054688 0 40-17.945312 40-40s-17.945312-40-40-40c-2.503906 0-5.023438.253906-7.550781.765625-9.539063-13.445313-27.105469-20.015625-43.449219-15.15625-9.0625-11.128906-22.472656-17.609375-37-17.609375-17.542969 0-33.007812 9.558594-41.375 23.894531l-11.183594-19.886719c7.183594-4.679687 13.957032-10.089843 20.160156-16.296874l27.710938-27.710938-27.710938-27.71875c-21.503906-21.496094-49.53125-33.984375-79.601562-35.890625v-93.078125l10.34375 10.34375 11.3125-11.3125-29.65625-29.65625-29.65625 29.65625 11.3125 11.3125 10.34375-10.34375v93.078125c-30.0625 1.914063-58.097656 14.394531-79.601562 35.890625l-4.621094 4.621094c-8-5.710938-17.59375-8.902344-27.777344-8.902344-17.609375 0-33.34375 9.414062-41.753906 24.488281-2.140625-.328125-4.207032-.488281-6.246094-.488281-23.984375 0-43.921875 17.679688-47.449219 40.695312-18.511719 3.496094-32.550781 19.792969-32.550781 39.304688 0 22.054688 17.945312 40 40 40h102.320312l-27.175781 48.320312c-10.777343 1.375-20.558593 7.253907-26.800781 16.335938l-87.550781 127.34375h494.414062l-87.550781-127.34375c-6.242188-9.082031-16.023438-14.96875-26.800781-16.335938l-4.679688-8.320312zm-88-96c11.167969 0 21.34375 5.785156 27.246094 15.472656l3.785156 6.222656 6.542969-3.183593c12.417969-6.054688 26.328125-.480469 31.945312 11.128906l3.183594 6.582031 6.839844-2.582031c16.839843-6.359375 32.457031 6.351563 32.457031 22.359375 0 13.230469-10.769531 24-24 24h-88.824219l-30.457031-54.152344c2.90625-14.863281 15.890625-25.847656 31.28125-25.847656zm-168-56c0-26.472656 21.527344-48 48-48s48 21.527344 48 48-21.527344 48-48 48-48-21.527344-48-48zm140.6875 0-16.398438 16.40625c-6.527343 6.527344-13.800781 12-21.546874 16.578125 5.832031-9.648437 9.257812-20.914063 9.257812-32.984375 0-12.074219-3.425781-23.335938-9.257812-32.984375 7.746093 4.574219 15.019531 10.054687 21.546874 16.574219zm-147.429688-32.984375c-5.832031 9.648437-9.257812 20.910156-9.257812 32.984375 0 12.070312 3.425781 23.335938 9.257812 32.984375-7.746093-4.578125-15.019531-10.058594-21.546874-16.578125l-16.398438-16.40625 16.398438-16.410156c6.527343-6.519532 13.808593-12 21.546874-16.574219zm-153.257812 128.984375c-13.230469 0-24-10.769531-24-24 0-13.234375 10.769531-24 24-24h8v-8c0-17.648438 14.351562-32 32-32 2.558594 0 5.304688.429688 8.617188 1.351562l7 1.953126 2.613281-6.777344c4.808593-12.472656 16.496093-20.527344 29.769531-20.527344 5.832031 0 11.304688 1.695312 16.144531 4.542969l-11.457031 11.457031 27.710938 27.71875c6.210937 6.199219 12.984374 11.609375 20.160156 16.296875l-29.238282 51.984375zm61.527344 89.71875c4.183594-6.085938 11.089844-9.71875 18.472656-9.71875s14.289062 3.632812 18.472656 9.71875l21.527344 31.3125v30.96875c0 4.414062-3.59375 8-8 8s-8-3.585938-8-8v-8c0-13.234375-10.769531-24-24-24s-24 10.765625-24 24v16c0 4.414062-3.59375 8-8 8s-8-3.585938-8-8v-38.96875zm-70.320313 102.28125 32.792969-47.695312v15.695312c0 13.230469 10.769531 24 24 24s24-10.769531 24-24v-16c0-4.417969 3.59375-8 8-8s8 3.582031 8 8v8c0 13.230469 10.769531 24 24 24s24-10.769531 24-24v-7.695312l32.792969 47.695312zm197 0-76.550781-111.34375c-4.726562-6.878906-11.496094-11.871094-19.183594-14.519531l62.070313-110.351563c3.625 1.734375 7.320312 3.285156 11.097656 4.664063l-21.402344 85.613281 15.523438 3.871094 21.246093-84.972656c6.207032 1.375 12.550782 2.238281 18.992188 2.648437v120.390625h16v-120.390625c6.441406-.410156 12.785156-1.273437 18.992188-2.648437l21.246093 84.972656 15.523438-3.871094-21.402344-85.613281c3.777344-1.371094 7.472656-2.929688 11.097656-4.664063l62.070313 110.351563c-7.679688 2.640625-14.457032 7.640625-19.183594 14.519531l-76.550781 111.34375zm59 0 32.792969-47.695312v15.695312c0 13.230469 10.769531 24 24 24s24-10.769531 24-24v-16c0-4.417969 3.59375-8 8-8s8 3.582031 8 8v8c0 13.230469 10.769531 24 24 24s24-10.769531 24-24v-7.695312l32.792969 47.695312zm107.265625-102.28125 21.527344 31.3125v30.96875c0 4.414062-3.59375 8-8 8s-8-3.585938-8-8v-8c0-13.234375-10.769531-24-24-24s-24 10.765625-24 24v16c0 4.414062-3.59375 8-8 8s-8-3.585938-8-8v-38.96875l21.527344-31.3125c4.183594-6.085938 11.089844-9.71875 18.472656-9.71875s14.289062 3.632812 18.472656 9.71875zm0 0"/><path d="m416 211.3125h16v16h-16zm0 0"/><path d="m448 211.3125h16v16h-16zm0 0"/><path d="m480 211.3125h16v16h-16zm0 0"/><path d="m0 315.3125h16v16h-16zm0 0"/><path d="m32 315.3125h16v16h-16zm0 0"/><path d="m64 315.3125h16v16h-16zm0 0"/></svg>